# xmcd
#
# Track frame offsets: 
#        150
#        26850
#        42195
#        64820
#        83770
#        94980
#        125740
#        142345
#        152770
#        176000
#        207105
#        226700
#        241425
#        262730
#
# Disc length: 3737 seconds
#
# Revision: 5
# Processed by: cddbd v1.5.2PL0 Copyright (c) Steve Scherf et al.
# Submitted via: ExactAudioCopy v0.95a4
#
DISCID=c10e970e
DTITLE=Lil' Ed and the Imperials - What You See Is What You Get
DYEAR=1992
DGENRE=Blues
TTITLE0=Life Is Like Gambling
TTITLE1=Find My Baby
TTITLE2=Older Woman
TTITLE3=Please Help
TTITLE4=Toothache
TTITLE5=Living For Today
TTITLE6=Travellin' Life
TTITLE7=Out Of The House
TTITLE8=Upset Man
TTITLE9=Long, Long Way From Home
TTITLE10=What You See Is What You Get
TTITLE11=Bluesmobile
TTITLE12=What Am I Gonna Do?
TTITLE13=Packin Up
EXTD=
EXTT0=
EXTT1=
EXTT2=
EXTT3=
EXTT4=
EXTT5=
EXTT6=
EXTT7=
EXTT8=
EXTT9=
EXTT10=
EXTT11=
EXTT12=
EXTT13=
PLAYORDER=
